<svg width="14" height="14" viewBox="0 0 14 14" fill="none" xmlns="http://www.w3.org/2000/svg">
<path fill-rule="evenodd" clip-rule="evenodd" d="M1.87378 13.5404C1.48325 13.931 0.850089 13.931 0.459565 13.5404C0.0690407 13.1499 0.0690407 12.5167 0.459565 12.1262L5.58655 6.99924L0.459565 1.87225C0.0690407 1.48172 0.0690407 0.848559 0.459565 0.458035C0.850089 0.0675106 1.48325 0.0675106 1.87378 0.458035L7.00076 5.58502L12.1278 0.458035C12.5183 0.0675106 13.1514 0.0675106 13.542 0.458035C13.9325 0.848559 13.9325 1.48172 13.542 1.87225L8.41498 6.99924L13.542 12.1262C13.9325 12.5167 13.9325 13.1499 13.542 13.5404C13.1514 13.931 12.5183 13.931 12.1278 13.5404L7.00076 8.41345L1.87378 13.5404Z" fill="#83828F"/>
</svg>
