<svg width="130" height="25" viewBox="0 0 130 25" fill="none" xmlns="http://www.w3.org/2000/svg">
<path d="M4.83287 0.332226L11.1619 19.4589H11.4113L17.7284 0.332226H22.5732L13.9999 24.6322H8.56142L0 0.332226H4.83287Z" fill="#FF00A8"/>
<path d="M32.6895 0.332226V24.6322H28.2842V0.332226H32.6895Z" fill="#FF00A8"/>
<path d="M53.1841 7.01234C53.0733 5.97611 52.6062 5.16928 51.7829 4.59184C50.9676 4.0144 49.9068 3.72568 48.6006 3.72568C47.6823 3.72568 46.8947 3.8641 46.2376 4.14096C45.5806 4.41781 45.0779 4.79354 44.7296 5.26815C44.3812 5.74276 44.2031 6.28461 44.1952 6.89369C44.1952 7.39994 44.31 7.83895 44.5396 8.21073C44.7771 8.5825 45.0977 8.89891 45.5014 9.15994C45.9051 9.41307 46.3524 9.62664 46.8432 9.80066C47.334 9.97469 47.8288 10.121 48.3275 10.2397L50.6074 10.8092C51.5257 11.0228 52.4083 11.3115 53.2554 11.6754C54.1103 12.0392 54.8742 12.498 55.5471 13.0517C56.2279 13.6054 56.7662 14.2738 57.162 15.057C57.5578 15.8401 57.7557 16.7576 57.7557 17.8097C57.7557 19.2335 57.3916 20.4873 56.6633 21.571C55.935 22.6467 54.8822 23.4892 53.5047 24.0982C52.1352 24.6994 50.4768 25 48.5294 25C46.6374 25 44.9948 24.7073 43.6015 24.122C42.2162 23.5366 41.1316 22.6823 40.3479 21.5591C39.5721 20.4359 39.1526 19.0674 39.0892 17.4537H43.4234C43.4867 18.3001 43.7479 19.0041 44.2071 19.5657C44.6662 20.1274 45.2639 20.5466 46.0001 20.8234C46.7442 21.1003 47.5755 21.2387 48.4937 21.2387C49.4516 21.2387 50.2907 21.0963 51.0111 20.8116C51.7394 20.5189 52.3094 20.1155 52.721 19.6013C53.1327 19.0793 53.3424 18.4702 53.3504 17.7741C53.3424 17.1413 53.1564 16.6192 52.7923 16.2079C52.4281 15.7886 51.9175 15.4406 51.2605 15.1637C50.6113 14.879 49.8514 14.6259 48.9806 14.4044L46.2139 13.6925C44.2111 13.1783 42.6278 12.3991 41.4641 11.355C40.3083 10.303 39.7305 8.90682 39.7305 7.16659C39.7305 5.73485 40.1183 4.48109 40.8941 3.40532C41.6778 2.32954 42.7426 1.49502 44.0883 0.901756C45.4341 0.300585 46.958 0 48.66 0C50.3857 0 51.8977 0.300585 53.196 0.901756C54.5022 1.49502 55.5273 2.32163 56.2715 3.38158C57.0156 4.43363 57.3995 5.64389 57.4233 7.01234H53.1841Z" fill="#FF00A8"/>
<path d="M68.5965 0.332226V24.6322H64.1911V0.332226H68.5965Z" fill="#FF00A8"/>
<path d="M74.8062 4.02231V0.332226H94.2089V4.02231H86.6924V24.6322H82.3226V4.02231H74.8062Z" fill="#FF00A8"/>
<path d="M100.457 24.6322V0.332226H104.863V11.4974H105.159L114.647 0.332226H120.026L110.622 11.2364L120.109 24.6322H114.813L107.558 14.2145L104.863 17.3944V24.6322H100.457Z" fill="#FF00A8"/>
<path d="M130 0.332226V24.6322H125.595V0.332226H130Z" fill="#FF00A8"/>
</svg>
